<svg width="128" height="128" viewBox="0 0 128 128" fill="none" xmlns="http://www.w3.org/2000/svg">
  <defs>
    <linearGradient id="markBg" x1="11" y1="12" x2="118" y2="122" gradientUnits="userSpaceOnUse">
      <stop stop-color="#0F7CFF"/>
      <stop offset="0.52" stop-color="#18B8D8"/>
      <stop offset="1" stop-color="#0A4EA3"/>
    </linearGradient>
    <linearGradient id="depth" x1="38" y1="100" x2="107" y2="35" gradientUnits="userSpaceOnUse">
      <stop stop-color="#DDFBFF"/>
      <stop offset="0.45" stop-color="#FFFFFF"/>
      <stop offset="1" stop-color="#B6F2FF"/>
    </linearGradient>
    <linearGradient id="accent" x1="88" y1="22" x2="123" y2="71" gradientUnits="userSpaceOnUse">
      <stop stop-color="#FFE36A"/>
      <stop offset="1" stop-color="#FF8A35"/>
    </linearGradient>
    <filter id="softShadow" x="-20%" y="-20%" width="140%" height="140%" color-interpolation-filters="sRGB">
      <feDropShadow dx="0" dy="8" stdDeviation="10" flood-color="#0A4EA3" flood-opacity="0.2"/>
    </filter>
  </defs>
  <rect width="128" height="128" rx="28" fill="#F3FAFF"/>
  <g filter="url(#softShadow)">
    <rect x="11" y="11" width="106" height="106" rx="26" fill="url(#markBg)"/>
    <path d="M37 35H72C94 35 108 48 108 64C108 85 91 101 66 101H34V84H65C79 84 89 77 89 66C89 56 81 52 69 52H37V35Z" fill="url(#depth)"/>
    <path d="M29 84L53 47H75L51 101H29V84Z" fill="url(#depth)" opacity="0.96"/>
    <path d="M40 71C56 62 77 58 102 59" stroke="#FFFFFF" stroke-opacity="0.55" stroke-width="4" stroke-linecap="round"/>
    <path d="M43 87C61 82 79 82 99 86" stroke="#FFFFFF" stroke-opacity="0.36" stroke-width="3" stroke-linecap="round"/>
    <path d="M94 20L99 33L112 38L99 43L94 56L89 43L76 38L89 33L94 20Z" fill="url(#accent)"/>
    <circle cx="36" cy="30" r="5" fill="#FFFFFF" fill-opacity="0.7"/>
  </g>
</svg>
